<?xml version="1.0" encoding="UTF-8"?>
<svg version="1.1" xmlns="http://www.w3.org/2000/svg" width="409" height="409">
<path d="M0 0 C134.97 0 269.94 0 409 0 C409 134.97 409 269.94 409 409 C274.03 409 139.06 409 0 409 C0 274.03 0 139.06 0 0 Z " fill="#DAD7D4" transform="translate(0,0)"/>
<path d="M0 0 C7.43709248 7.33692962 12.53049002 16.09370143 12.75537109 26.70141602 C12.72657667 38.35399642 10.65976427 47.96266742 2.375 56.6875 C-3.93603544 62.55823064 -10.91524241 65.96206329 -19.625 65.6875 C-19.16964901 64.12412827 -18.71057224 62.56184151 -18.25 61 C-17.99476563 60.12988281 -17.73953125 59.25976562 -17.4765625 58.36328125 C-16.625 55.6875 -16.625 55.6875 -15.54296875 53.4140625 C-14.23029239 49.51513443 -14.29582147 45.836241 -14.3125 41.75 C-14.29638672 40.96431641 -14.28027344 40.17863281 -14.26367188 39.36914062 C-14.25950184 34.38594571 -14.93714307 31.035704 -17.625 26.6875 C-18.77277125 25.31325941 -18.77277125 25.31325941 -21.875 25.5625 C-24.96103789 25.66536793 -27.63924114 25.96367967 -30.625 26.6875 C-31.0375 25.470625 -31.45 24.25375 -31.875 23 C-34.04581311 17.37967564 -36.34614897 14.03292336 -41.875 11.375 C-51.68799991 7.82900446 -63.17757343 8.56068071 -72.8125 12.3046875 C-82.09324963 16.86772274 -88.46059865 22.77306852 -93.625 31.6875 C-94.15867188 32.60402344 -94.69234375 33.52054688 -95.2421875 34.46484375 C-102.68880665 48.26517028 -104.81219991 62.89462462 -104.81030273 78.42871094 C-104.81247939 80.41866174 -104.83096666 82.40857284 -104.84960938 84.3984375 C-104.85994704 91.27643026 -104.43985872 97.66498139 -103.08129883 104.40478516 C-101.91823348 110.22322334 -102.58000716 113.26109041 -105.77490234 118.09106445 C-106.22043457 118.74163818 -106.6659668 119.39221191 -107.125 120.0625 C-114.44985833 131.26391882 -120.51158961 142.91427827 -124.625 155.6875 C-130.03088865 152.08357423 -133.13553395 147.03388812 -136.625 141.6875 C-137.15480469 140.88957031 -137.68460938 140.09164062 -138.23046875 139.26953125 C-153.499039 115.20877659 -155.34786535 82.32922931 -149.59960938 54.86474609 C-146.18229642 40.64202582 -139.51656527 28.20307984 -130.625 16.6875 C-130.12484375 16.01589844 -129.6246875 15.34429687 -129.109375 14.65234375 C-115.69592072 -2.26865174 -92.47136238 -13.01577105 -71.5 -16 C-47.86931219 -18.05112661 -18.84760667 -16.06168593 0 0 Z " fill="#FEFEFE" transform="translate(183.625,116.3125)"/>
<path d="M0 0 C3.45658479 2.04573386 4.7785359 3.66780385 7 7 C7.21240544 9.50485947 7.31121316 11.90241846 7.31884766 14.40893555 C7.32889328 15.16039856 7.3389389 15.91186157 7.34928894 16.68609619 C7.38017657 19.16962927 7.39717139 21.65305428 7.4140625 24.13671875 C7.43276968 25.85879958 7.45234275 27.5808712 7.4727478 29.30293274 C7.52412263 33.83532284 7.56371966 38.36774268 7.60089111 42.90026855 C7.64089726 47.5253844 7.69200504 52.15037598 7.7421875 56.77539062 C7.83901011 65.85017319 7.92339459 74.92502583 8 84 C8.68489502 83.58717773 9.36979004 83.17435547 10.07543945 82.74902344 C10.97480225 82.20793945 11.87416504 81.66685547 12.80078125 81.109375 C14.13749878 80.3045166 14.13749878 80.3045166 15.5012207 79.48339844 C25.16837618 73.74449891 32.84004869 72.65627476 43.9375 72.6875 C45.07896484 72.67138672 46.22042969 72.65527344 47.39648438 72.63867188 C53.99394692 72.63486052 59.00067621 73.21013041 65 76 C63.69340512 78.77022508 62.24077915 81.17095325 60.390625 83.609375 C59.88273437 84.28226562 59.37484375 84.95515625 58.8515625 85.6484375 C58.32304687 86.34195313 57.79453125 87.03546875 57.25 87.75 C56.73695313 88.42804688 56.22390625 89.10609375 55.6953125 89.8046875 C54.65515329 91.17937028 53.61281772 92.5524089 52.56835938 93.92382812 C51.51713197 95.31542804 50.47682226 96.71533863 49.44726562 98.12304688 C46.54774895 102.07693326 43.61839004 105.65994766 40 109 C39.195625 109.763125 38.39125 110.52625 37.5625 111.3125 C34.42743334 113.3770561 32.68202094 113.07267147 29 113 C26.64652956 114.24488417 26.64652956 114.24488417 24.5 116.0625 C20.37141559 119.13697775 16.20985579 121.63252232 11.625 123.9375 C10.46226562 124.52402344 9.29953125 125.11054688 8.1015625 125.71484375 C5 127 5 127 1 127 C1.33 124.69 1.66 122.38 2 120 C1.05125 120.66 0.1025 121.32 -0.875 122 C-4 124 -4 124 -6 124 C-6 123.01 -6 122.02 -6 121 C-7.68029297 121.97453125 -7.68029297 121.97453125 -9.39453125 122.96875 C-10.86699431 123.8128371 -12.33966121 124.65656867 -13.8125 125.5 C-14.91948242 126.14388672 -14.91948242 126.14388672 -16.04882812 126.80078125 C-17.11713867 127.40986328 -17.11713867 127.40986328 -18.20703125 128.03125 C-18.8616333 128.40830078 -19.51623535 128.78535156 -20.19067383 129.17382812 C-22 130 -22 130 -25 130 C-24.47731534 127.23723823 -23.89130413 124.6739124 -23 122 C-28.19080097 123.90764446 -32.90624532 126.59252602 -37.73632812 129.25390625 C-42.79095124 132 -42.79095124 132 -45 132 C-44.979375 131.195625 -44.95875 130.39125 -44.9375 129.5625 C-44.70366379 127.06645115 -44.70366379 127.06645115 -46 126 C-46.33 126.99 -46.66 127.98 -47 129 C-49.08300833 130.51940496 -51.11116158 131.86574089 -53.3125 133.1875 C-53.89451172 133.55552734 -54.47652344 133.92355469 -55.07617188 134.30273438 C-58.41885808 136.34317363 -59.97839125 137 -64 137 C-63.9375 134.6875 -63.9375 134.6875 -63 132 C-60.69747517 130.93097061 -58.3627974 129.92824183 -56 129 C-55.67 128.01 -55.34 127.02 -55 126 C-59.455 126.99 -59.455 126.99 -64 128 C-61.31211401 119.69198876 -55.79484248 115.91138841 -48.5625 111.8125 C-28.83607854 100.2581411 -28.83607854 100.2581411 -15.5 82.4375 C-15.335 81.633125 -15.17 80.82875 -15 80 C-20.14294059 81.92860272 -24.02642126 84.34157002 -28.30078125 87.79296875 C-30 89 -30 89 -32 89 C-32.33 70.85 -32.66 52.7 -33 34 C-37.95 33.01 -42.9 32.02 -48 31 C-51.50815851 27.49184149 -52.1523387 25.39412699 -52.25 20.625 C-52.19115369 16.59729673 -51.68746197 14.15081749 -49 11 C-45.2157507 8.30838606 -42.27755956 7.56728541 -37.6875 7.125 C-29.43021554 6.10375023 -21.85615887 3.66830485 -14 1 C-9.38223785 -0.53925405 -4.82242876 -0.52248862 0 0 Z " fill="#FEFEFE" transform="translate(253,79)"/>
<path d="M0 0 C6.04415184 0.53330752 9.29784775 3.98507316 13.01953125 8.390625 C17.77044983 14.56064913 20.85479236 20.52207279 23 28 C23.26302917 28.82948906 23.26302917 28.82948906 23.53137207 29.67573547 C24.1963227 32.97370612 24.16979989 36.24768902 24.18945312 39.59838867 C24.19774643 40.35814499 24.20603973 41.11790131 24.21458435 41.90068054 C24.23194951 43.5463118 24.2471259 45.19196729 24.26036072 46.83763695 C24.28141605 49.4384794 24.30843342 52.03919917 24.33703613 54.63996887 C24.40680837 61.09546802 24.46638242 67.55105385 24.52606201 74.00665283 C24.57690815 79.46804958 24.63168682 84.92937832 24.69187927 90.39068031 C24.71853164 92.95942313 24.73929394 95.52817208 24.7598877 98.0969696 C24.77648168 99.66124784 24.79335272 101.22552317 24.81054688 102.78979492 C24.8168235 103.86901215 24.8168235 103.86901215 24.82322693 104.97003174 C24.58333113 108.26830328 24.58333113 108.26830328 26 111 C27.74730139 111.15831254 29.49830059 111.27664255 31.25 111.375 C38.69191357 112.01205097 38.69191357 112.01205097 42 115 C44.42135154 119.0355859 44.60480043 123.41282133 44 128 C42.34150624 131.73161095 40.47490351 133.88929777 37 136 C34.09170532 136.38768005 34.09170532 136.38768005 30.67431641 136.40405273 C28.7517955 136.42307899 28.7517955 136.42307899 26.79043579 136.44248962 C25.39414305 136.44043782 23.99785142 136.4374495 22.6015625 136.43359375 C21.16433465 136.43815687 19.72710898 136.44346283 18.28988647 136.44947815 C15.27877943 136.45840769 12.26793762 136.45598904 9.25683594 136.44604492 C5.40767144 136.43456882 1.5594262 136.45474533 -2.28961754 136.48396206 C-5.25802378 136.50235696 -8.22621122 136.50202492 -11.19466019 136.49632454 C-12.61316846 136.49617165 -14.03169187 136.50218915 -15.45014572 136.51461601 C-17.43855462 136.52957933 -19.42711489 136.51619145 -21.41552734 136.50170898 C-23.10952164 136.50145973 -23.10952164 136.50145973 -24.83773804 136.50120544 C-28.7560582 135.8801679 -30.940858 134.48812587 -34 132 C-35.54117572 127.37647285 -35.64870126 122.82295284 -35 118 C-32.7984026 115.10316132 -31.21405538 113.60702769 -28 112 C-25.14792222 111.68744353 -22.29503146 111.48962518 -19.43359375 111.28125 C-17.05456695 111.26165078 -17.05456695 111.26165078 -16 110 C-15.90225285 107.79253551 -15.87483664 105.58194187 -15.87402344 103.37231445 C-15.8721553 102.6795491 -15.87028717 101.98678375 -15.86836243 101.27302551 C-15.86434895 99.76320583 -15.86228272 98.25338004 -15.86190033 96.74355507 C-15.8584933 93.53222617 -15.83713698 90.32110129 -15.81666946 87.10984325 C-15.77862002 81.1263441 -15.74738074 75.14305763 -15.74951172 69.15942383 C-15.7502999 65.00178159 -15.72688534 60.84487859 -15.6876297 56.68742943 C-15.67717913 55.10429396 -15.67563879 53.52107304 -15.68328094 51.93792152 C-15.69293193 49.71602543 -15.67166894 47.49635372 -15.64355469 45.2746582 C-15.63990906 44.01192581 -15.63626343 42.74919342 -15.63250732 41.44819641 C-14.79729809 36.89494404 -13.23848674 35.25604443 -10 32 C-7.97265625 31.1171875 -7.97265625 31.1171875 -6.0625 30.875 C-2.00267666 30.12147218 0.71487025 28.56400371 4 26 C4.33 25.34 4.66 24.68 5 24 C4.12988281 24.63228516 4.12988281 24.63228516 3.2421875 25.27734375 C-2.29670628 29.16188146 -6.14745499 31 -13 31 C-12.67 30.34 -12.34 29.68 -12 29 C-12.61875 29.495 -13.2375 29.99 -13.875 30.5 C-16 32 -16 32 -18 32 C-19.38232443 30.37373596 -20.71937515 28.7074998 -22 27 C-20.52879309 21.72154816 -17.10028562 18.8358164 -13.25 15.1875 C-8.31875461 10.40184496 -3.87869453 5.70396255 0 0 Z " fill="#FEFEFE" transform="translate(322,158)"/>
<path d="M0 0 C0.77214844 0.02707031 1.54429687 0.05414063 2.33984375 0.08203125 C2.90832031 0.11683594 3.47679687 0.15164062 4.0625 0.1875 C9.04721404 9.72347468 9.1380724 18.8893744 6.0625 29.1875 C2.30522662 38.27850873 -2.71266533 46.87636764 -7.9375 55.1875 C-8.68587005 56.41086291 -9.4331781 57.63487582 -10.1796875 58.859375 C-21.00848613 76.5348798 -33.0399435 92.74580122 -47.96875 107.21484375 C-49.87547598 109.12535292 -51.58979146 111.11131117 -53.3125 113.1875 C-62.54412687 123.84908275 -79.37998015 137.5897324 -92.9375 142.1875 C-95.046875 141.984375 -95.046875 141.984375 -96.9375 141.1875 C-99.49785795 137.34696308 -99.58438716 134.62037941 -98.9375 130.1875 C-92.80192251 107.72843263 -78.38960044 82.77204335 -60.9375 67.1875 C-60.2775 67.1875 -59.6175 67.1875 -58.9375 67.1875 C-58.9375 66.5275 -58.9375 65.8675 -58.9375 65.1875 C-59.55238281 65.70441406 -60.16726562 66.22132813 -60.80078125 66.75390625 C-61.60902344 67.41261719 -62.41726562 68.07132812 -63.25 68.75 C-64.05050781 69.41128906 -64.85101563 70.07257813 -65.67578125 70.75390625 C-66.42214844 71.22699219 -67.16851562 71.70007813 -67.9375 72.1875 C-69.4225 71.6925 -69.4225 71.6925 -70.9375 71.1875 C-70.6075 70.5275 -70.2775 69.8675 -69.9375 69.1875 C-69.49019531 68.26066406 -69.04289062 67.33382812 -68.58203125 66.37890625 C-57.35118279 43.8410895 -40.1843593 21.94808374 -19.25 7.8125 C-18.3233252 7.18661987 -18.3233252 7.18661987 -17.37792969 6.5480957 C-12.00342599 3.02852827 -6.64092102 -0.30650405 0 0 Z " fill="#D9D5D2" transform="translate(159.9375,143.8125)"/>
<path d="M0 0 C-0.33 1.65 -0.66 3.3 -1 5 C-0.51789063 4.6390625 -0.03578125 4.278125 0.4609375 3.90625 C1.09257812 3.4421875 1.72421875 2.978125 2.375 2.5 C3.00148437 2.0359375 3.62796875 1.571875 4.2734375 1.09375 C6 0 6 0 8 0 C8.495 0.99 8.495 0.99 9 2 C10.89533342 2.46523063 10.89533342 2.46523063 13.0625 2.625 C14.361875 2.74875 15.66125 2.8725 17 3 C17.01030746 3.76199203 17.02061493 4.52398407 17.03123474 5.30906677 C17.1290441 12.4755974 17.2315344 19.64203827 17.33933926 26.80842495 C17.39460165 30.4931019 17.44802679 34.17778673 17.49731445 37.86254883 C17.54490932 41.41577841 17.59725007 44.96890875 17.65294075 48.52202034 C17.6733865 49.88042811 17.69209585 51.23886312 17.70907402 52.59731865 C17.73306877 54.49389705 17.76370332 56.39038799 17.79467773 58.28686523 C17.81799416 59.90902199 17.81799416 59.90902199 17.84178162 61.56394958 C17.72758019 63.94751051 17.72758019 63.94751051 19 65 C21.0807859 65.27038461 23.16478299 65.51623128 25.25 65.75 C29.27349515 66.37273635 31.77231408 66.86682522 35.3125 68.9375 C37.86618258 73.57196098 37.71544928 77.82854595 37 83 C35.77208244 86.00839801 34.98663729 87.36324083 32.28796387 89.10491943 C29.30630768 90.27138126 26.84434527 90.25429555 23.64257812 90.25878906 C22.35444214 90.26509338 21.06630615 90.27139771 19.73913574 90.27789307 C18.33650577 90.27431317 16.93387704 90.27021118 15.53125 90.265625 C14.08923273 90.26697278 12.64721591 90.26891425 11.2052002 90.27142334 C8.18574693 90.27436932 5.16641214 90.27009396 2.14697266 90.26074219 C-1.72007427 90.24934787 -5.58684356 90.25591017 -9.45388031 90.26788712 C-12.43074631 90.27511997 -15.40754668 90.27281125 -18.38441467 90.26763153 C-19.8101454 90.26629898 -21.23588211 90.26792894 -22.66160583 90.27259064 C-24.65526208 90.277679 -26.64893926 90.26854622 -28.64257812 90.25878906 C-29.77634888 90.25719788 -30.91011963 90.25560669 -32.07824707 90.25396729 C-36.03319368 89.91019179 -38.10209807 88.9941057 -40.75 86.0625 C-42.65119618 81.40456936 -42.81821661 76.95392964 -42 72 C-39.7984026 69.10316132 -38.21405538 67.60702769 -35 66 C-32.14792222 65.68744353 -29.29503146 65.48962518 -26.43359375 65.28125 C-24.05456695 65.26165078 -24.05456695 65.26165078 -23 64 C-22.89241252 62.2057415 -22.85374199 60.40730796 -22.84228516 58.60986328 C-22.82689194 56.88269577 -22.82689194 56.88269577 -22.81118774 55.12063599 C-22.80388641 53.86652924 -22.79658508 52.61242249 -22.7890625 51.3203125 C-22.7681849 49.36663371 -22.74729006 47.41295493 -22.72536278 45.45928764 C-22.67207047 40.62348298 -22.62797031 35.78767029 -22.59863281 30.95166016 C-22.5817565 28.24308875 -22.55708535 25.53480454 -22.52377319 22.8263855 C-22.492678 20.2701277 -22.47335762 17.71369534 -22.46670532 15.15725708 C-22.45013885 13.99950775 -22.43357239 12.84175842 -22.41650391 11.64892578 C-22.40841705 10.62824005 -22.4003302 9.60755432 -22.39199829 8.55593872 C-22 6 -22 6 -20.59896851 4.14694214 C-19 3 -19 3 -17 3 C-16.67 3.99 -16.34 4.98 -16 6 C-10.93722402 5.6202918 -7.81922748 3.85307616 -3.734375 1.05859375 C-2 0 -2 0 0 0 Z " fill="#FEFEFE" transform="translate(243,204)"/>
<path d="M0 0 C0.83493988 0.00149048 1.66987976 0.00298096 2.53012085 0.0045166 C15.72552461 0.0467949 28.52607732 0.74647747 41.5 3.3125 C42.56758545 3.50537598 42.56758545 3.50537598 43.65673828 3.70214844 C92.55004657 12.64979461 138.40195483 44.88895293 166.5 85.3125 C170.03640677 90.52722238 173.33347314 95.86635096 176.5 101.3125 C176.85400879 101.91739258 177.20801758 102.52228516 177.57275391 103.14550781 C202.10669954 145.58198064 208.82681329 197.60566659 197.8125 245.1875 C183.57938074 297.95286608 152.72437319 344.7515028 104.61865234 372.44165039 C100.95179995 374.47777093 97.23917207 376.41309132 93.5 378.3125 C92.80729004 378.67037598 92.11458008 379.02825195 91.40087891 379.39697266 C63.86204233 393.50762033 34.77748462 399.69748506 4.00073242 399.62817383 C1.06977279 399.62500786 -1.86017929 399.64859397 -4.79101562 399.67382812 C-16.39368643 399.71248537 -27.15257433 398.77607118 -38.5 396.3125 C-39.94491783 396.01807097 -41.39015373 395.72519881 -42.83569336 395.43383789 C-91.93846886 385.28742142 -136.69300583 352.70373038 -164.21875 311.2734375 C-166.75884282 307.35130634 -169.1592427 303.3562516 -171.5 299.3125 C-171.88639648 298.64814941 -172.27279297 297.98379883 -172.67089844 297.29931641 C-195.72477869 257.13377566 -203.58141195 207.71062133 -194.5 162.3125 C-194.33371094 161.45930176 -194.16742188 160.60610352 -193.99609375 159.72705078 C-190.07406384 140.17137386 -183.04231268 121.80092497 -173.5 104.3125 C-172.95569336 103.30074707 -172.95569336 103.30074707 -172.40039062 102.26855469 C-158.75190564 77.14453629 -138.30573597 53.36753124 -114.5 37.3125 C-113.85788574 36.87437988 -113.21577148 36.43625977 -112.55419922 35.98486328 C-90.43917976 20.97104428 -67.08778271 10.52185067 -41.0625 4.1875 C-40.41901611 4.02862305 -39.77553223 3.86974609 -39.11254883 3.70605469 C-26.10607899 0.66454174 -13.29134885 -0.05870985 0 0 Z M-35.5 6.3125 C-36.89508789 6.59456299 -36.89508789 6.59456299 -38.31835938 6.88232422 C-85.44309643 16.69607413 -129.74201142 44.67197559 -157.5 84.3125 C-157.90234863 84.87582031 -158.30469727 85.43914062 -158.71923828 86.01953125 C-189.7599919 129.64829598 -200.35257918 182.03346958 -192.12548828 234.71044922 C-187.51451226 261.94594757 -176.59074711 288.83840349 -160.5 311.3125 C-159.78457031 312.31796875 -159.06914062 313.3234375 -158.33203125 314.359375 C-125.04287729 359.84473227 -77.970886 387.29793738 -22.59838867 396.01391602 C27.33473895 403.11900212 79.38125641 388.67389635 119.59228516 358.5769043 C125.02793119 354.43092333 130.20076508 350.03388172 135.2265625 345.3984375 C137.3389424 343.4602745 139.49998072 341.60226729 141.6875 339.75 C164.21668052 320.07013367 180.37023439 290.39563154 189.5 262.3125 C189.74637207 261.56871094 189.99274414 260.82492187 190.24658203 260.05859375 C199.29392339 232.4964145 202.18935096 203.14234796 197.81201172 174.375 C197.48936442 172.24219533 197.19969253 170.10627892 196.91015625 167.96875 C191.10258244 127.35141731 170.55151509 90.73339378 142.5 61.3125 C141.77296875 60.53261719 141.0459375 59.75273438 140.296875 58.94921875 C107.33514891 24.58356729 57.73436278 4.23611432 10.53125 3.03515625 C-4.98565852 2.72916038 -20.25961853 3.1301549 -35.5 6.3125 Z " fill="#FBFBFB" transform="translate(202.5,3.6875)"/>
<path d="M0 0 C4.89942682 2.22951445 9.34507791 5.24326458 12 10 C12.94243838 15.31881892 12.0406704 18.52802304 9 23 C6.13823307 26.46008506 3.06482161 29.71948718 0 33 C-0.65355469 33.71929687 -1.30710937 34.43859375 -1.98046875 35.1796875 C-7.03101519 40.53222538 -12.60978529 44.37887833 -19 48 C-19.68320313 48.39058594 -20.36640625 48.78117187 -21.0703125 49.18359375 C-42.1379064 59.80000871 -70.50420693 58.34467916 -92.3125 51.1875 C-98.80589968 48.96582086 -105.019395 46.39602193 -111 43 C-111 42.01 -111 41.02 -111 40 C-108.90873052 38.30348024 -106.85534604 36.80464097 -104.625 35.3125 C-103.33693687 34.42419751 -102.05048889 33.53354869 -100.765625 32.640625 C-100.12689453 32.19783203 -99.48816406 31.75503906 -98.83007812 31.29882812 C-95.46412904 28.90997418 -92.28014282 26.3023693 -89.0859375 23.69140625 C-88.39757812 23.13324219 -87.70921875 22.57507813 -87 22 C-86.29617187 21.41992188 -85.59234375 20.83984375 -84.8671875 20.2421875 C-84.25101563 19.83226562 -83.63484375 19.42234375 -83 19 C-80.5335336 19.6166166 -78.56177249 20.68166225 -76.359375 21.9296875 C-64.25631717 28.48974826 -51.10165081 29.67238022 -37.953125 26.03125 C-27.32669063 22.32043165 -20.53450242 15.26477374 -14.3125 6.125 C-10.2818838 0.67822135 -6.77709891 -0.91892867 0 0 Z " fill="#FEFEFE" transform="translate(186,243)"/>
<path d="M0 0 C2.87164679 2.48426921 4.12607504 5.13094429 5.6875 8.5625 C9.12471606 15.63457205 13.36016628 22.57344419 20 27 C15.61175964 37.11300063 2.99608939 43.33157799 -6 49 C-6.93199219 49.5878125 -7.86398438 50.175625 -8.82421875 50.78125 C-14.33833217 54.06237534 -14.33833217 54.06237534 -17.11328125 53.80078125 C-19 53 -19 53 -21 50 C-23.11907708 33.95555927 -9.80047308 13.67778297 -1 1 C-0.67 0.67 -0.34 0.34 0 0 Z " fill="#FBFBFB" transform="translate(82,232)"/>
<path d="M0 0 C4.3715069 4.25646725 5.15424012 8.02159707 5.34423828 14.00195312 C5.61421465 34.82870188 -6.54251605 52.38178155 -17.81396484 69.22412109 C-18.63253975 70.44979295 -19.44500247 71.67956127 -20.25244141 72.91259766 C-27.08312051 83.33972308 -34.59812551 92.79894554 -43 102 C-43.61456055 102.67627441 -44.22912109 103.35254883 -44.86230469 104.04931641 C-55.36502485 115.56366801 -66.10986748 125.99986856 -78.625 135.3125 C-79.41293945 135.8998291 -80.20087891 136.4871582 -81.01269531 137.09228516 C-93.97482138 146.56086117 -93.97482138 146.56086117 -100.875 147.5625 C-104 147 -104 147 -105.66015625 145.26171875 C-108.1917879 140.98820642 -107.6768588 136.80057839 -107 132 C-100.61234686 108.85415099 -85.59020697 82.33429779 -66 68 C-65.34 68 -64.68 68 -64 68 C-64 68.66 -64 69.32 -64 70 C-65.30712891 71.22875977 -65.30712891 71.22875977 -67.1015625 72.62890625 C-71.14471393 75.98803533 -74.23338571 79.74242755 -77.375 83.9375 C-77.93662842 84.68330322 -78.49825684 85.42910645 -79.0769043 86.19750977 C-90.12945628 101.09483972 -104.28292269 121.75615959 -103 141 C-102.34 141.99 -101.68 142.98 -101 144 C-96.41900873 143.42845856 -92.93716069 141.49326846 -89.0625 139.125 C-88.08277222 138.53041992 -88.08277222 138.53041992 -87.08325195 137.92382812 C-74.03045279 129.81786547 -61.53897254 119.63554668 -51.63671875 107.88671875 C-50.04384275 106.0505395 -48.37487844 104.37330967 -46.625 102.6875 C-35.29447822 91.4831533 -26.11459783 77.81177109 -17.9296875 64.203125 C-16.64680531 62.07364444 -15.33947245 59.95869774 -14.0078125 57.859375 C-2.92929203 40.60083094 -2.92929203 40.60083094 2 21 C2.06832031 20.30777344 2.13664062 19.61554688 2.20703125 18.90234375 C2.50982254 13.26145421 0.81005791 8.25778727 -1 3 C-14.15440005 3.43848 -24.10040492 10.92193041 -34 19 C-34.90492188 19.72703125 -35.80984375 20.4540625 -36.7421875 21.203125 C-45.19217435 28.40398336 -51.51600373 37.05378031 -58 46 C-58.44150391 46.59780273 -58.88300781 47.19560547 -59.33789062 47.81152344 C-65.2421678 55.81251637 -69.81077418 64.01539028 -74 73 C-75.21587237 69.35238288 -74.38261464 68.10003049 -72.75268555 64.7590332 C-72.40117432 64.07542725 -72.04966309 63.39182129 -71.6875 62.6875 C-71.32503174 61.9761792 -70.96256348 61.2648584 -70.58911133 60.53198242 C-59.36017808 39.11916611 -27.93438415 -3.55528526 0 0 Z " fill="#1F1F1E" transform="translate(165,141)"/>
<path d="M0 0 C1.22589844 0.01353516 1.22589844 0.01353516 2.4765625 0.02734375 C3.41628906 0.04474609 3.41628906 0.04474609 4.375 0.0625 C9.46010038 9.79051812 9.13633011 18.53588245 6.375 29.0625 C3.66186327 35.77563673 3.66186327 35.77563673 1.375 38.0625 C-5.18060175 38.89684931 -8.83988365 37.25691134 -14.42578125 33.86328125 C-17.54571415 31.30859374 -19.27792531 28.75159682 -20.09375 24.78125 C-20.1530502 20.57093587 -20.10141897 18.67503867 -17.4375 15.25 C-15.66138138 13.86857441 -13.85159739 12.52848391 -12 11.25 C-9.1534733 8.62819909 -8.4013149 6.40871921 -7.30078125 2.76953125 C-5.96248648 -0.6110168 -3.185399 -0.0455057 0 0 Z " fill="#FDFDFD" transform="translate(159.625,143.9375)"/>
<path d="M0 0 C-0.63974564 8.02051479 -6.34806493 12.83080401 -12 18 C-18.68925138 23.64387895 -25.9392113 28.407522 -33.45239258 32.86914062 C-40.33816229 36.96730092 -45.50205163 40.45754883 -49 48 C-48.09507812 47.50886719 -48.09507812 47.50886719 -47.171875 47.0078125 C-44.62452701 45.82576973 -42.77587962 45.84578447 -40 46 C-40.0625 47.8125 -40.0625 47.8125 -41 50 C-44.5 51.5 -44.5 51.5 -48 53 C-49.04289755 55.06890419 -49.04289755 55.06890419 -49 57 C-47.9275 56.525625 -46.855 56.05125 -45.75 55.5625 C-43.19160135 54.46233668 -40.74164983 53.54832997 -38 53 C-41.34118082 56.57983659 -43.73768141 58.89716734 -48.75 59.125 C-49.4925 59.08375 -50.235 59.0425 -51 59 C-51.495 56.525 -51.495 56.525 -52 54 C-52.78375 54.99 -53.5675 55.98 -54.375 57 C-55.24125 57.99 -56.1075 58.98 -57 60 C-57.66 60 -58.32 60 -59 60 C-59.33 59.34 -59.66 58.68 -60 58 C-61.0725 58.66 -62.145 59.32 -63.25 60 C-66.30980686 61.88295807 -67.1335864 62 -71 62 C-70.56572515 57.07821839 -68.30904303 54.54540325 -65 51 C-62 49 -62 49 -59.8125 49.375 C-59.214375 49.58125 -58.61625 49.7875 -58 50 C-60.68944294 53.58592392 -63.46724675 56.25816166 -67 59 C-58.21727693 54.33499279 -52.23086166 50.42767348 -48 41 C-48.99 41.66 -49.98 42.32 -51 43 C-52.485 42.505 -52.485 42.505 -54 42 C-52.82244141 41.38125 -52.82244141 41.38125 -51.62109375 40.75 C-44.65055466 36.9183417 -39.86053485 33.22826675 -35 27 C-12.43147208 0 -12.43147208 0 0 0 Z " fill="#212020" transform="translate(238,159)"/>
<path d="M0 0 C-0.75 2.9375 -0.75 2.9375 -2 6 C-2.6084375 6.1340625 -3.216875 6.268125 -3.84375 6.40625 C-6.93290171 7.25688598 -7.88445039 9.01530726 -9.75 11.5625 C-10.36359375 12.38878906 -10.9771875 13.21507812 -11.609375 14.06640625 C-12.06828125 14.70449219 -12.5271875 15.34257812 -13 16 C-11.68 15.34 -10.36 14.68 -9 14 C-10.61961485 18.24766915 -13.83759219 20.89279552 -17.0625 23.9375 C-27.24911438 33.86281107 -34.18658884 45.61704293 -41 58 C-41.66 58 -42.32 58 -43 58 C-42.42176904 53.93774452 -41.10882263 51.15237654 -38.9375 47.6875 C-38.38964844 46.80449219 -37.84179688 45.92148438 -37.27734375 45.01171875 C-36.85582031 44.34785156 -36.43429687 43.68398437 -36 43 C-38.77496587 43 -42.92047181 47.57675547 -45.1640625 49.35742188 C-47.76356819 51.39194491 -49.84306957 52.94768986 -53 54 C-53 52.68 -53 51.36 -53 50 C-53.92941406 50.5053125 -54.85882813 51.010625 -55.81640625 51.53125 C-57.06470897 52.18825143 -58.31342949 52.84445945 -59.5625 53.5 C-60.17158203 53.83386719 -60.78066406 54.16773438 -61.40820312 54.51171875 C-65.76015161 56.76828463 -68.99585571 57.36065905 -74 57 C-74.33 56.01 -74.66 55.02 -75 54 C-75.72316406 54.54140625 -75.72316406 54.54140625 -76.4609375 55.09375 C-77.09257812 55.5578125 -77.72421875 56.021875 -78.375 56.5 C-79.00148437 56.9640625 -79.62796875 57.428125 -80.2734375 57.90625 C-82 59 -82 59 -84 59 C-83.67 57.35 -83.34 55.7 -83 54 C-83.80824219 54.51691406 -84.61648437 55.03382813 -85.44921875 55.56640625 C-86.51785156 56.22511719 -87.58648437 56.88382813 -88.6875 57.5625 C-89.74324219 58.22378906 -90.79898438 58.88507813 -91.88671875 59.56640625 C-95.26557247 61.12228996 -96.54410943 61.17333576 -100 60 C-100 59.01 -100 58.02 -100 57 C-100.72316406 57.54140625 -100.72316406 57.54140625 -101.4609375 58.09375 C-102.09257812 58.5578125 -102.72421875 59.021875 -103.375 59.5 C-104.00148437 59.9640625 -104.62796875 60.428125 -105.2734375 60.90625 C-107 62 -107 62 -109 62 C-109 61.01 -109 60.02 -109 59 C-114.98979339 61.82537424 -116.61565964 63.64175904 -119 70 C-121.1875 72.4375 -121.1875 72.4375 -123 74 C-124.32 73.34 -125.64 72.68 -127 72 C-126.45912682 68.21388773 -124.88277668 66.44599233 -122 64 C-121.34 64 -120.68 64 -120 64 C-120.33 62.68 -120.66 61.36 -121 60 C-122.65 60.66 -124.3 61.32 -126 62 C-124.71034824 60.62437146 -123.37310707 59.29233607 -122 58 C-121.34 58 -120.68 58 -120 58 C-119.67 56.68 -119.34 55.36 -119 54 C-118.01 54.33 -117.02 54.66 -116 55 C-116.66 56.98 -117.32 58.96 -118 61 C-117.51120361 60.7326001 -117.02240723 60.4652002 -116.51879883 60.18969727 C-114.28702045 58.97378107 -112.04987498 57.76808472 -109.8125 56.5625 C-109.04357422 56.14162109 -108.27464844 55.72074219 -107.48242188 55.28710938 C-103.68501839 53.24987575 -100.35404764 51.47990505 -96 51 C-96.66666667 53.66666667 -97.33333333 56.33333333 -98 59 C-97.04738281 58.51789063 -96.09476563 58.03578125 -95.11328125 57.5390625 C-93.84640841 56.90093396 -92.57947829 56.26291914 -91.3125 55.625 C-90.68666016 55.30789062 -90.06082031 54.99078125 -89.41601562 54.6640625 C-85.99635299 52.94527919 -82.57992926 51.35530783 -79 50 C-79 50.99 -79 51.98 -79 53 C-78.05125 52.34 -77.1025 51.68 -76.125 51 C-73 49 -73 49 -71 49 C-71.33 51.31 -71.66 53.62 -72 56 C-63.76115894 53.27652928 -56.84970887 49.98279125 -49.75927734 45.03540039 C-46.47196732 42.77591685 -43.92520608 41.60186493 -40 41 C-29.67608595 36.70002045 -23.74334393 27.04027177 -17.84057617 18.11621094 C-5.78159301 0 -5.78159301 0 0 0 Z " fill="#1D1D1C" transform="translate(326,150)"/>
<path d="M0 0 C0.495 11.88 0.495 11.88 1 24 C-10.75 30 -10.75 30 -13 30 C-12.979375 29.195625 -12.95875 28.39125 -12.9375 27.5625 C-12.70366379 25.06645115 -12.70366379 25.06645115 -14 24 C-14.33 24.99 -14.66 25.98 -15 27 C-17.08300833 28.51940496 -19.11116158 29.86574089 -21.3125 31.1875 C-21.89451172 31.55552734 -22.47652344 31.92355469 -23.07617188 32.30273438 C-26.41885808 34.34317363 -27.97839125 35 -32 35 C-31.9375 32.6875 -31.9375 32.6875 -31 30 C-28.69747517 28.93097061 -26.3627974 27.92824183 -24 27 C-23.67 26.01 -23.34 25.02 -23 24 C-25.97 24.66 -28.94 25.32 -32 26 C-29.24341 17.47963091 -23.39954733 13.62733727 -16 9.375 C-11.75544163 6.89441394 -4.51957919 0 0 0 Z " fill="#D5D1CE" transform="translate(221,181)"/>
<path d="M0 0 C-1.34212329 3.02635645 -2.77994258 5.04697582 -5.25 7.25 C-5.81203125 7.77078125 -6.3740625 8.2915625 -6.953125 8.828125 C-9 10 -9 10 -11.93359375 9.97265625 C-15.66693407 10.00594718 -16.90204111 10.92380975 -19.8125 13.1875 C-31.66996951 22 -31.66996951 22 -37 22 C-37.10911227 20.43908834 -37.18609398 18.87591508 -37.25 17.3125 C-37.29640625 16.44238281 -37.3428125 15.57226562 -37.390625 14.67578125 C-36.72458394 10.11340001 -34.02265447 7.79239842 -30.484375 5.05078125 C-20.66613951 -1.19081131 -11.39167166 -4.55666866 0 0 Z " fill="#D9D5D2" transform="translate(297,182)"/>
<path d="M0 0 C-1.5616418 8.72949179 -10.51025649 15.79997216 -16.5625 21.75 C-17.29146484 22.47832031 -18.02042969 23.20664063 -18.77148438 23.95703125 C-21.83130364 26.9920635 -24.84862705 29.9387867 -28.26171875 32.57421875 C-31.49905463 35.44210118 -33.28630511 38.25612636 -35.25 42.0625 C-35.59353516 42.71355713 -35.93707031 43.36461426 -36.29101562 44.03540039 C-39.19996086 49.82999106 -40.51774017 55.52566175 -41 62 C-41.66 61.67 -42.32 61.34 -43 61 C-43.91401182 53.34938252 -42.17085283 48.42072996 -38.41015625 41.76171875 C-36.88129969 39.12953943 -36.88129969 39.12953943 -36.62109375 36.45703125 C-35.7290825 32.9282572 -33.63992326 31.45721671 -31 29 C-29.22813903 26.95162133 -27.4801427 24.89508494 -25.75 22.8125 C-6.55739905 0 -6.55739905 0 0 0 Z " fill="#232322" transform="translate(193,174)"/>
<path d="M0 0 C0 0.66 0 1.32 0 2 C-1.30712891 3.22875977 -1.30712891 3.22875977 -3.1015625 4.62890625 C-7.14471393 7.98803533 -10.23338571 11.74242755 -13.375 15.9375 C-13.93662842 16.68330322 -14.49825684 17.42910645 -15.0769043 18.19750977 C-26.12945628 33.09483972 -40.28292269 53.75615959 -39 73 C-37.27773504 76.24849977 -37.27773504 76.24849977 -34 77 C-34 77.66 -34 78.32 -34 79 C-36.8125 79.25 -36.8125 79.25 -40 79 C-42.695854 76.21554986 -43.4731138 74.08764766 -43.5625 70.25 C-42.77659318 46.48417783 -22.7668712 18.94473276 -6.17578125 3.27734375 C-2.40546657 0 -2.40546657 0 0 0 Z " fill="#131313" transform="translate(101,209)"/>
<path d="M0 0 C1.32 0 2.64 0 4 0 C3.33333333 2.66666667 2.66666667 5.33333333 2 8 C2.98742187 7.50628906 3.97484375 7.01257813 4.9921875 6.50390625 C9.328125 4.3359375 13.6640625 2.16796875 18 0 C18 0.99 18 1.98 18 3 C16.29807615 3.9902653 14.58811989 4.96673206 12.875 5.9375 C11.92367187 6.48277344 10.97234375 7.02804688 9.9921875 7.58984375 C6.93743568 9.02948527 4.33865613 9.60867384 1 10 C0.67 8.68 0.34 7.36 0 6 C-0.48210937 6.3609375 -0.96421875 6.721875 -1.4609375 7.09375 C-2.09257812 7.5578125 -2.72421875 8.021875 -3.375 8.5 C-4.00148437 8.9640625 -4.62796875 9.428125 -5.2734375 9.90625 C-7 11 -7 11 -9 11 C-9 10.01 -9 9.02 -9 8 C-14.98979339 10.82537424 -16.61565964 12.64175904 -19 19 C-21.1875 21.4375 -21.1875 21.4375 -23 23 C-24.32 22.34 -25.64 21.68 -27 21 C-26.45912682 17.21388773 -24.88277668 15.44599233 -22 13 C-21.34 13 -20.68 13 -20 13 C-20.33 11.68 -20.66 10.36 -21 9 C-22.65 9.66 -24.3 10.32 -26 11 C-24.71034824 9.62437146 -23.37310707 8.29233607 -22 7 C-21.34 7 -20.68 7 -20 7 C-19.67 5.68 -19.34 4.36 -19 3 C-18.01 3.33 -17.02 3.66 -16 4 C-16.66 5.98 -17.32 7.96 -18 10 C-15.18593119 8.52380364 -12.37401822 7.04354757 -9.5625 5.5625 C-8.76005859 5.14162109 -7.95761719 4.72074219 -7.13085938 4.28710938 C-6.36708984 3.88427734 -5.60332031 3.48144531 -4.81640625 3.06640625 C-4.10943604 2.69459229 -3.40246582 2.32277832 -2.67407227 1.93969727 C-1.02071254 1.11087599 -1.02071254 1.11087599 0 0 Z " fill="#262525" transform="translate(226,201)"/>
<path d="M0 0 C-5.90590236 12.67540366 -21.68682494 23.88901682 -34 30 C-34.66 29.67 -35.32 29.34 -36 29 C-9.86133333 0 -9.86133333 0 0 0 Z " fill="#CFCBC8" transform="translate(236,162)"/>
<path d="M0 0 C0 0.33 0 0.66 0 1 C-0.60585937 1.08636719 -1.21171875 1.17273438 -1.8359375 1.26171875 C-13.91023234 3.28648512 -22.60082038 9.39988211 -32 17 C-32.9075 17.72832031 -33.815 18.45664063 -34.75 19.20703125 C-43.19358388 26.41107738 -49.51737104 35.05566683 -56 44 C-56.44150391 44.59780273 -56.88300781 45.19560547 -57.33789062 45.81152344 C-63.2421678 53.81251637 -67.81077418 62.01539028 -72 71 C-73.21587237 67.35238288 -72.38261464 66.10003049 -70.75268555 62.7590332 C-70.40117432 62.07542725 -70.04966309 61.39182129 -69.6875 60.6875 C-69.32503174 59.9761792 -68.96256348 59.2648584 -68.58911133 58.53198242 C-57.31218614 37.02764873 -27.50194701 -3.99221812 0 0 Z " fill="#2F2E2D" transform="translate(163,143)"/>
<path d="M0 0 C0.99 0.33 1.98 0.66 3 1 C2.43152344 1.6290625 1.86304688 2.258125 1.27734375 2.90625 C-2.28114858 6.85088924 -5.83668176 10.7946606 -9.3125 14.8125 C-20.78107624 27.91944428 -32.63256293 39.92678534 -46.625 50.375 C-47.78817749 51.24983032 -47.78817749 51.24983032 -48.97485352 52.14233398 C-54.37295049 56.09281385 -59.93360951 59.1892125 -66 62 C-66 61.01 -66 60.02 -66 59 C-65.12859375 58.52691406 -64.2571875 58.05382812 -63.359375 57.56640625 C-46.97895202 48.53308475 -31.53889029 36.8632715 -19.2890625 22.640625 C-17.54588627 20.62972546 -15.78036375 18.67434528 -13.9609375 16.734375 C-13.42936035 16.16710693 -12.8977832 15.59983887 -12.35009766 15.01538086 C-11.31844555 13.91745998 -10.28443771 12.8217456 -9.24755859 11.72875977 C-5.79656822 8.03442288 -2.86989854 4.1634477 0 0 Z " fill="#2C2B2B" transform="translate(133,226)"/>
<path d="M0 0 C0.65234375 1.796875 0.65234375 1.796875 1 4 C0.06640625 5.578125 0.06640625 5.578125 -1.4375 7.25 C-8.08910186 15.57230937 -14 26.1776412 -14 37 C-14.66 36.67 -15.32 36.34 -16 36 C-16.91401182 28.34938252 -15.17085283 23.42072996 -11.41015625 16.76171875 C-10.04738304 14.09279726 -9.5718956 11.90877934 -9 9 C-6.6875 6.4375 -6.6875 6.4375 -4 4 C-3.236875 3.236875 -2.47375 2.47375 -1.6875 1.6875 C-1.130625 1.130625 -0.57375 0.57375 0 0 Z " fill="#0F0F0F" transform="translate(166,199)"/>
<path d="M0 0 C-0.34165159 5.83435792 -2.6450299 8.41351338 -6.5625 12.375 C-7.08263672 12.92027344 -7.60277344 13.46554688 -8.13867188 14.02734375 C-9.41486909 15.36208212 -10.70598179 16.68253171 -12 18 C-12.66 17.34 -13.32 16.68 -14 16 C-13.32904297 15.47212891 -13.32904297 15.47212891 -12.64453125 14.93359375 C-8.25049472 11.34528673 -5.12438167 7.73391163 -2 3 C-12.01355231 6.48297472 -19.46676218 14.27598717 -27.06518555 21.40625 C-30.8020091 24.90100455 -30.8020091 24.90100455 -33 26 C-28.71669645 16.44655336 -10.86488337 0 0 0 Z " fill="#353434" transform="translate(238,159)"/>
<path d="M0 0 C0.495 0.99 0.495 0.99 1 2 C-1.67402991 4.67402991 -4.81498773 6.02183475 -8.1875 7.625 C-8.83525391 7.94984375 -9.48300781 8.2746875 -10.15039062 8.609375 C-14.59552669 10.723146 -17.98343955 11.35135443 -23 11 C-23.33 10.01 -23.66 9.02 -24 8 C-24.48210937 8.3609375 -24.96421875 8.721875 -25.4609375 9.09375 C-26.09257812 9.5578125 -26.72421875 10.021875 -27.375 10.5 C-28.00148437 10.9640625 -28.62796875 11.428125 -29.2734375 11.90625 C-31 13 -31 13 -33 13 C-32.44271087 9.65626525 -31.64826111 6.96687001 -30 4 C-29.34 4 -28.68 4 -28 4 C-28 4.99 -28 5.98 -28 7 C-27.05125 6.34 -26.1025 5.68 -25.125 5 C-22 3 -22 3 -20 3 C-20.33 5.31 -20.66 7.62 -21 10 C-13.46414725 7.3004186 -6.61432099 4.53923989 0 0 Z " fill="#242424" transform="translate(275,196)"/>
<path d="M0 0 C-1.41115314 3.12270026 -3.110624 5.49653681 -5.375 8.0625 C-5.96023437 8.73410156 -6.54546875 9.40570313 -7.1484375 10.09765625 C-8.99019029 11.98992125 -10.79728544 13.54512063 -13 15 C-13.66 15 -14.32 15 -15 15 C-15.96059718 10.80830322 -15.96059718 10.80830322 -15 8 C-10.58129289 3.70091948 -6.29039999 0 0 0 Z " fill="#EFEEEE" transform="translate(236,162)"/>
<path d="M0 0 C0.66 0.33 1.32 0.66 2 1 C0.15570679 3.76643982 -1.01307223 4.92379526 -3.625 6.8125 C-4.68654297 7.5859375 -4.68654297 7.5859375 -5.76953125 8.375 C-6.50558594 8.91125 -7.24164063 9.4475 -8 10 C-10.08171325 11.59733592 -12.16209674 13.19626543 -14.23828125 14.80078125 C-16 16 -16 16 -19 17 C-18.26011296 12.19073421 -15.50734204 8.50734204 -12.125 5.125 C-10 4 -10 4 -7 4.0625 C-3.86516159 4.31135907 -3.86516159 4.31135907 -1.625 2 C-1.08875 1.34 -0.5525 0.68 0 0 Z " fill="#1B1B1B" transform="translate(292,187)"/>
<path d="M0 0 C-1.50107539 4.50322618 -4.88770408 5.90324589 -9 8 C-10.7015625 8.4021875 -10.7015625 8.4021875 -12.4375 8.8125 C-17.03658112 10.34552704 -19.63589275 12.98687044 -23.08203125 16.3203125 C-25 18 -25 18 -27 18 C-25.44759763 13.03231242 -22.48945219 8.82132943 -19 5 C-18.34 5 -17.68 5 -17 5 C-16.67 5.66 -16.34 6.32 -16 7 C-15.443125 6.690625 -14.88625 6.38125 -14.3125 6.0625 C-12 5 -12 5 -9.5625 4.625 C-5.78550652 3.70378208 -3.75486325 0 0 0 Z " fill="#1C1C1C" transform="translate(327,182)"/>
<path d="M0 0 C-0.75 2.9375 -0.75 2.9375 -2 6 C-2.6084375 6.1340625 -3.216875 6.268125 -3.84375 6.40625 C-6.93290171 7.25688598 -7.88445039 9.01530726 -9.75 11.5625 C-10.36359375 12.38878906 -10.9771875 13.21507812 -11.609375 14.06640625 C-12.29773438 15.02353516 -12.29773438 15.02353516 -13 16 C-11.68 15.34 -10.36 14.68 -9 14 C-10.40844718 17.21524305 -12.10344786 19.32183868 -14.625 21.75 C-15.57246094 22.67039063 -15.57246094 22.67039063 -16.5390625 23.609375 C-17.02117187 24.06828125 -17.50328125 24.5271875 -18 25 C-18.66 23.68 -19.32 22.36 -20 21 C-4.64974619 0 -4.64974619 0 0 0 Z " fill="#2E2E2E" transform="translate(326,150)"/>
<path d="M0 0 C0.8971875 0.309375 0.8971875 0.309375 1.8125 0.625 C-0.86808098 4.19910797 -3.61339203 6.94441902 -7.1875 9.625 C-3.5575 7.645 0.0725 5.665 3.8125 3.625 C2.8125 7.625 2.8125 7.625 0.66796875 9.109375 C-0.21246094 9.52703125 -1.09289062 9.9446875 -2 10.375 C-2.87269531 10.80296875 -3.74539062 11.2309375 -4.64453125 11.671875 C-7.1875 12.625 -7.1875 12.625 -11.1875 12.625 C-10.75322515 7.70321839 -8.49654303 5.17040325 -5.1875 1.625 C-2.1875 -0.375 -2.1875 -0.375 0 0 Z " fill="#252424" transform="translate(178.1875,208.375)"/>
<path d="M0 0 C2.0625 0.4375 2.0625 0.4375 4 1 C4 1.66 4 2.32 4 3 C5.65 2.34 7.3 1.68 9 1 C8.67 1.99 8.34 2.98 8 4 C5.9375 4.6875 5.9375 4.6875 4 5 C3.67 6.32 3.34 7.64 3 9 C4.60875 8.2884375 4.60875 8.2884375 6.25 7.5625 C8.80839865 6.46233668 11.25835017 5.54832997 14 5 C10.65881918 8.57983659 8.26231859 10.89716734 3.25 11.125 C2.5075 11.08375 1.765 11.0425 1 11 C0.67 9.35 0.34 7.7 0 6 C-1.175625 7.485 -1.175625 7.485 -2.375 9 C-3.24125 9.99 -4.1075 10.98 -5 12 C-5.66 12 -6.32 12 -7 12 C-2.38461538 2.38461538 -2.38461538 2.38461538 0 0 Z " fill="#1A1A19" transform="translate(186,207)"/>
<path d="M0 0 C0.66 0.33 1.32 0.66 2 1 C-4.72999648 9.67769572 -12.13871581 17.35742232 -20 25 C-20.66 24.67 -21.32 24.34 -22 24 C-14.9839082 15.63373246 -7.88356529 7.569618 0 0 Z " fill="#C4C1BE" transform="translate(189,176)"/>
<path d="M0 0 C3.25 -0.3125 3.25 -0.3125 7 0 C10.76639062 3.66727507 11.96239609 6.53946418 12.09765625 11.79296875 C12.09102785 13.25784438 12.07913087 14.72270378 12.0625 16.1875 C12.05798828 16.93708984 12.05347656 17.68667969 12.04882812 18.45898438 C12.03706354 20.30602383 12.01912865 22.15302213 12 24 C11.34 24 10.68 24 10 24 C9.89042969 22.98679688 9.78085938 21.97359375 9.66796875 20.9296875 C9.50840107 19.57805539 9.34821167 18.22649657 9.1875 16.875 C9.11724609 16.20984375 9.04699219 15.5446875 8.97460938 14.859375 C8.42451121 10.37057398 7.42871402 6.82989519 5 3 C1.91038542 2.02525184 1.91038542 2.02525184 -1 2 C-0.67 1.34 -0.34 0.68 0 0 Z " fill="#121212" transform="translate(158,141)"/>
<path d="M0 0 C0.66 0.33 1.32 0.66 2 1 C-3.55627915 6.14370325 -9.35139245 10.46194626 -15.75 14.5 C-17.00490234 15.32371094 -17.00490234 15.32371094 -18.28515625 16.1640625 C-19.09339844 16.67710937 -19.90164062 17.19015625 -20.734375 17.71875 C-21.45850586 18.18216797 -22.18263672 18.64558594 -22.92871094 19.12304688 C-25.40868486 20.17303112 -26.51777958 19.9201696 -29 19 C-25.50640535 15.40365256 -21.88901869 12.16548033 -18 9 C-18.33 9.639375 -18.66 10.27875 -19 10.9375 C-20.07271225 12.76794567 -20.07271225 12.76794567 -20 14 C-17.78826549 12.60933405 -15.58069263 11.21269321 -13.375 9.8125 C-12.75753906 9.42513672 -12.14007813 9.03777344 -11.50390625 8.63867188 C-7.39500213 6.02194873 -3.68286578 3.18992836 0 0 Z " fill="#222221" transform="translate(223,176)"/>
<path d="M0 0 C0.47050781 0.40992188 0.94101562 0.81984375 1.42578125 1.2421875 C2.04839844 1.78101563 2.67101563 2.31984375 3.3125 2.875 C4.23482422 3.67550781 4.23482422 3.67550781 5.17578125 4.4921875 C7.13498212 6.1640447 7.13498212 6.1640447 10 8 C10 8.66 10 9.32 10 10 C7.78023089 11.34771696 6.49852224 12.04398726 3.875 11.8125 C2 11 2 11 0 8 C-0.25760279 5.30547479 -0.08900053 2.71451625 0 0 Z " fill="#CECBC8" transform="translate(61,274)"/>
<path d="M0 0 C0.33 0 0.66 0 1 0 C1.04898438 0.61488281 1.09796875 1.22976563 1.1484375 1.86328125 C1.22320312 2.67152344 1.29796875 3.47976563 1.375 4.3125 C1.44460937 5.11300781 1.51421875 5.91351563 1.5859375 6.73828125 C1.89564426 9.27224441 1.89564426 9.27224441 4 12 C4.99 12.33 5.98 12.66 7 13 C7 13.66 7 14.32 7 15 C1.57831325 15.48192771 1.57831325 15.48192771 -0.875 13.4375 C-2.40834776 10.11524652 -2.32336671 7.62170719 -2 4 C-1 1.5625 -1 1.5625 0 0 Z " fill="#080707" transform="translate(60,273)"/>
<path d="M0 0 C0.33 0.99 0.66 1.98 1 3 C1.66 3 2.32 3 3 3 C0.91147495 11.11593505 -2.35329853 18.47056459 -6 26 C-6.99 25.67 -7.98 25.34 -9 25 C-8.51789063 24.11699219 -8.03578125 23.23398438 -7.5390625 22.32421875 C-3.63028023 14.96760037 -0.84125375 8.41253752 0 0 Z " fill="#292929" transform="translate(167,162)"/>
<path d="M0 0 C0.66 0 1.32 0 2 0 C1.53525658 3.06730657 0.81030412 5.41100774 -0.5 8.25 C-2.36784346 12.37747848 -2.70531504 16.51875634 -3 21 C-3.66 20.67 -4.32 20.34 -5 20 C-5.76258253 12.03524914 -4.07063514 6.83285184 0 0 Z " fill="#232222" transform="translate(155,215)"/>
<path d="M0 0 C0.66 0.33 1.32 0.66 2 1 C-4.28445928 6.38858956 -10.4188361 10.64493172 -18 14 C-18 13.01 -18 12.02 -18 11 C-17.03578125 10.45730469 -16.0715625 9.91460937 -15.078125 9.35546875 C-13.80200123 8.6329575 -12.52596412 7.91029317 -11.25 7.1875 C-10.61578125 6.83107422 -9.9815625 6.47464844 -9.328125 6.10742188 C-6.05195463 4.24751265 -2.95014899 2.36160916 0 0 Z " fill="#282828" transform="translate(85,274)"/>
<path d="M0 0 C0.99 0.33 1.98 0.66 3 1 C1.80100302 4.0831351 0.52299523 7.06279492 -1 10 C-2.32 9.34 -3.64 8.68 -5 8 C-4.45773019 4.20411134 -2.79872437 2.52788007 0 0 Z " fill="#282726" transform="translate(204,214)"/>
<path d="M0 0 C0.99 0 1.98 0 3 0 C2.25 2.9375 2.25 2.9375 1 6 C-0.33333333 6.33333333 -1.66666667 6.66666667 -3 7 C-4.75600676 8.60744878 -4.75600676 8.60744878 -6.25 10.5625 C-6.77078125 11.20316406 -7.2915625 11.84382812 -7.828125 12.50390625 C-8.21484375 12.99761719 -8.6015625 13.49132812 -9 14 C-9.66 13.67 -10.32 13.34 -11 13 C-9.54300902 11.20724155 -8.08436345 9.41582771 -6.625 7.625 C-5.40683594 6.12839844 -5.40683594 6.12839844 -4.1640625 4.6015625 C-2 2 -2 2 0 0 Z " fill="#323131" transform="translate(323,150)"/>
<path d="M0 0 C0.99 0.33 1.98 0.66 3 1 C2.45730469 1.85722656 1.91460937 2.71445313 1.35546875 3.59765625 C0.6325539 4.75244232 -0.09008773 5.90739946 -0.8125 7.0625 C-1.16892578 7.62388672 -1.52535156 8.18527344 -1.89257812 8.76367188 C-4.35463667 12.71651816 -6.25584361 16.68087454 -8 21 C-9 18 -9 18 -8.39501953 16.22241211 C-8.06099121 15.58053955 -7.72696289 14.93866699 -7.3828125 14.27734375 C-6.84333984 13.22256836 -6.84333984 13.22256836 -6.29296875 12.14648438 C-5.90753906 11.41751953 -5.52210937 10.68855469 -5.125 9.9375 C-4.74730469 9.20466797 -4.36960937 8.47183594 -3.98046875 7.71679688 C-3.27937759 6.35827681 -2.57421196 5.00184661 -1.86376953 3.64819336 C-1.22988934 2.43866109 -0.61069999 1.22139999 0 0 Z " fill="#31302F" transform="translate(99,193)"/>
<path d="M0 0 C0.66 0.33 1.32 0.66 2 1 C-3.445 7.435 -3.445 7.435 -9 14 C-9.66 13.34 -10.32 12.68 -11 12 C-7.37 8.04 -3.74 4.08 0 0 Z " fill="#1B1B1B" transform="translate(177,186)"/>
<path d="M0 0 C0 3.42583257 -0.35337989 4.9931285 -2 8 C-4.2083871 9.87177383 -6.55074465 11.46102939 -9 13 C-7.47987323 7.59510481 -3.72614782 4.01507372 0 0 Z " fill="#C5C5C5" transform="translate(321,155)"/>
<path d="M0 0 C0 0.66 0 1.32 0 2 C-1.42578125 3.40234375 -1.42578125 3.40234375 -3.3125 4.9375 C-5.15298704 6.44615919 -6.90543996 7.90017332 -8.54296875 9.62890625 C-10 11 -10 11 -13 12 C-11.50198648 8.38522825 -9.42462583 6.31379537 -6.5 3.75 C-5.7059375 3.04359375 -4.911875 2.3371875 -4.09375 1.609375 C-2 0 -2 0 0 0 Z " fill="#212020" transform="translate(101,209)"/>
<path d="M0 0 C0.99 0.66 1.98 1.32 3 2 C1.88121617 3.17262904 0.75476949 4.33795138 -0.375 5.5 C-1.00148438 6.1496875 -1.62796875 6.799375 -2.2734375 7.46875 C-4 9 -4 9 -6 9 C-4.68775452 5.06326356 -3.08089673 2.77280706 0 0 Z " fill="#0C0C0B" transform="translate(306,191)"/>
<path d="M0 0 C1 3 1 3 0.22265625 5.04296875 C-0.16019531 5.75066406 -0.54304688 6.45835937 -0.9375 7.1875 C-1.31777344 7.90292969 -1.69804688 8.61835938 -2.08984375 9.35546875 C-2.54037109 10.16951172 -2.54037109 10.16951172 -3 11 C-3.99 11 -4.98 11 -6 11 C-3.76687117 3.98159509 -3.76687117 3.98159509 -2 1 C-1.34 0.67 -0.68 0.34 0 0 Z " fill="#0D0D0D" transform="translate(72,244)"/>
<path d="M0 0 C-0.33 1.32 -0.66 2.64 -1 4 C-3.49064888 4.68707555 -5.37886292 5 -8 5 C-7.625 3.0625 -7.625 3.0625 -7 1 C-4.53721199 -0.231394 -2.7204945 -0.07159196 0 0 Z " fill="#4E4D4C" transform="translate(198,205)"/>
<path d="M0 0 C0.33 1.32 0.66 2.64 1 4 C-0.43359375 6.140625 -0.43359375 6.140625 -2.4375 8.25 C-3.09621094 8.95640625 -3.75492187 9.6628125 -4.43359375 10.390625 C-5.20896484 11.18726563 -5.20896484 11.18726563 -6 12 C-6.66 11.34 -7.32 10.68 -8 10 C-5.36 6.7 -2.72 3.4 0 0 Z " fill="#1D1D1D" transform="translate(306,172)"/>
<path d="M0 0 C0.66 0 1.32 0 2 0 C0.44298069 4.67105792 -2.08447373 8.08705685 -5 12 C-6 9 -6 9 -5.0390625 6.9921875 C-4.57242187 6.29351562 -4.10578125 5.59484375 -3.625 4.875 C-3.16351563 4.17117187 -2.70203125 3.46734375 -2.2265625 2.7421875 C-1 1 -1 1 0 0 Z " fill="#100F0F" transform="translate(297,183)"/>
<path d="M0 0 C0.33 0.99 0.66 1.98 1 3 C-0.75 6.1875 -0.75 6.1875 -3 9 C-3.99 9 -4.98 9 -6 9 C-4.68775452 5.06326356 -3.08089673 2.77280706 0 0 Z " fill="#181818" transform="translate(77,236)"/>
<path d="M0 0 C0.99 0.33 1.98 0.66 3 1 C2.8125 2.875 2.8125 2.875 2 5 C-0.5625 6.25 -0.5625 6.25 -3 7 C-2.625 4.0625 -2.625 4.0625 -2 1 C-1.34 0.67 -0.68 0.34 0 0 Z " fill="#2A2929" transform="translate(220,205)"/>
<path d="M0 0 C0.66 0.33 1.32 0.66 2 1 C-2 5 -6 9 -10 13 C-10 10 -10 10 -7.8125 7.51953125 C-6.884375 6.62621094 -5.95625 5.73289063 -5 4.8125 C-4.071875 3.91144531 -3.14375 3.01039063 -2.1875 2.08203125 C-1.1046875 1.05142578 -1.1046875 1.05142578 0 0 Z " fill="#252424" transform="translate(126,161)"/>
<path d="M0 0 C0.6875 1.75 0.6875 1.75 1 4 C-0.7573799 7.07541482 -1.57945994 7.85981998 -5 9 C-3.90931332 5.22454612 -3.0916909 2.52956528 0 0 Z " fill="#202020" transform="translate(67,254)"/>
<path d="M0 0 C1.32 0.33 2.64 0.66 4 1 C2.68 2.65 1.36 4.3 0 6 C-1.32 5.67 -2.64 5.34 -4 5 C-2.68 3.35 -1.36 1.7 0 0 Z " fill="#474645" transform="translate(176,208)"/>
<path d="M0 0 C0 4.28535967 -2.2516278 5.84942699 -5 9 C-5.33 9.66 -5.66 10.32 -6 11 C-7.32 10.67 -8.64 10.34 -10 10 C-6.66666667 6.66666667 -3.33333333 3.33333333 0 0 Z " fill="#2A2A29" transform="translate(204,185)"/>
<path d="M0 0 C2 2 2 2 2.125 5.125 C2.08375 6.07375 2.0425 7.0225 2 8 C1.67 7.01 1.34 6.02 1 5 C-0.65 5.33 -2.3 5.66 -4 6 C-3.6875 4.125 -3.6875 4.125 -3 2 C-2.01 1.34 -1.02 0.68 0 0 Z " fill="#545454" transform="translate(225,202)"/>
<path d="M0 0 C0.66 0 1.32 0 2 0 C1.67 2.31 1.34 4.62 1 7 C2.32 7.33 3.64 7.66 5 8 C3.02 8 1.04 8 -1 8 C-1.625 5.125 -1.625 5.125 -2 2 C-1.34 1.34 -0.68 0.68 0 0 Z " fill="#0A0A0A" transform="translate(253,199)"/>
<path d="M0 0 C-1.23263349 3.69790046 -2.20052451 3.9354846 -5.5625 5.6875 C-6.80193359 6.34298828 -6.80193359 6.34298828 -8.06640625 7.01171875 C-8.70449219 7.33785156 -9.34257812 7.66398438 -10 8 C-10.33 7.34 -10.66 6.68 -11 6 C-9.54550599 4.9944239 -8.08627557 3.99569565 -6.625 3 C-5.40683594 2.1646875 -5.40683594 2.1646875 -4.1640625 1.3125 C-2 0 -2 0 0 0 Z " fill="#323232" transform="translate(327,182)"/>
<path d="M0 0 C0 3 0 3 -1.2421875 4.60546875 C-1.78101563 5.12753906 -2.31984375 5.64960938 -2.875 6.1875 C-3.40867187 6.71730469 -3.94234375 7.24710938 -4.4921875 7.79296875 C-6 9 -6 9 -8 9 C-6.4169423 4.7257442 -3.49431596 2.73468206 0 0 Z " fill="#6F6F6F" transform="translate(316,164)"/>
<path d="M0 0 C1.32 0 2.64 0 4 0 C3.34 2.97 2.68 5.94 2 9 C1.67 9 1.34 9 1 9 C0.67 6.03 0.34 3.06 0 0 Z " fill="#181818" transform="translate(226,201)"/>
<path d="M0 0 C0.66 0 1.32 0 2 0 C0.60667426 3.36720387 -0.9789286 4.9859524 -4 7 C-4.66 6.67 -5.32 6.34 -6 6 C-4 4 -2 2 0 0 Z " fill="#A3A09E" transform="translate(282,193)"/>
<path d="M0 0 C0.66 0.33 1.32 0.66 2 1 C0.8803014 2.00593243 -0.2459412 3.0045849 -1.375 4 C-2.00148438 4.556875 -2.62796875 5.11375 -3.2734375 5.6875 C-5 7 -5 7 -7 7 C-5.66667905 3.00003714 -3.5042173 2.16217663 0 0 Z " fill="#1C1C1C" transform="translate(85,274)"/>
<path d="M0 0 C0.99 0.33 1.98 0.66 3 1 C-0.465 3.97 -0.465 3.97 -4 7 C-3.04065919 3.16263678 -2.76390737 2.40339772 0 0 Z " fill="#464544" transform="translate(113,249)"/>
<path d="M0 0 C0.99 0.33 1.98 0.66 3 1 C1.35 2.65 -0.3 4.3 -2 6 C-2.99 5.67 -3.98 5.34 -5 5 C-3.35 3.35 -1.7 1.7 0 0 Z " fill="#2D2C2B" transform="translate(182,180)"/>
<path d="M0 0 C0.66 0 1.32 0 2 0 C1.1875 2.4375 1.1875 2.4375 0 5 C-0.99 5.33 -1.98 5.66 -3 6 C-2.42655063 3.13275314 -2.1385485 2.1385485 0 0 Z " fill="#B9B5B3" transform="translate(204,216)"/>
<path d="M0 0 C0.99 0.33 1.98 0.66 3 1 C1.02 2.98 -0.96 4.96 -3 7 C-3.66 6.67 -4.32 6.34 -5 6 C-3.35 4.02 -1.7 2.04 0 0 Z " fill="#B6B3B1" transform="translate(172,194)"/>
<path d="M0 0 C-0.66 1.65 -1.32 3.3 -2 5 C-3.32 4.34 -4.64 3.68 -6 3 C-3.375 0 -3.375 0 0 0 Z " fill="#242323" transform="translate(326,150)"/>
</svg>
